<svg xmlns="http://www.w3.org/2000/svg" viewBox="0 0 800 1200">
  <!-- Header Section -->
  <rect x="0" y="0" width="800" height="100" fill="#E6E6FA"/>
  <!-- Logo placeholder -->
  <rect x="50" y="20" width="120" height="60" fill="#E0E0E0"/>
  <!-- Navigation Menu -->
  <g transform="translate(400, 30)">
    <rect x="0" y="0" width="350" height="40" fill="#FFFFFF" stroke="#000000" stroke-width="1"/>
    <line x1="87" y1="0" x2="87" y2="40" stroke="#000000"/>
    <line x1="174" y1="0" x2="174" y2="40" stroke="#000000"/>
    <line x1="261" y1="0" x2="261" y2="40" stroke="#000000"/>
    <text x="43" y="25" text-anchor="middle" font-size="14">Home</text>
    <text x="130" y="25" text-anchor="middle" font-size="14">About Us</text>
    <text x="217" y="25" text-anchor="middle" font-size="14">Trips</text>
    <text x="304" y="25" text-anchor="middle" font-size="14">Contact Us</text>
  </g>

  <!-- Hero Section -->
  <rect x="20" y="120" width="760" height="300" fill="#E0E0E0" stroke="#666"/>
  <text x="400" y="150" text-anchor="middle" font-size="24">Contact Roike Adventures</text>

  <!-- Find Us Section -->
  <text x="400" y="480" text-anchor="middle" font-size="24">Find Us</text>
  <text x="400" y="510" text-anchor="middle" font-size="16">Get in touch with our team for an unforgettable rafting experience!</text>
  <rect x="250" y="530" width="300" height="100" fill="#F5F5F5" stroke="#666"/>
  
  <!-- Map Section -->
  <rect x="50" y="660" width="700" height="200" fill="#E0E0E0" stroke="#666"/>

  <!-- Team Section -->
  <text x="400" y="900" text-anchor="middle" font-size="24">Meet Our Team</text>
  <!-- Team Member Circles -->
  <g transform="translate(0, 940)">
    <circle cx="200" cy="40" r="40" fill="#E0E0E0" stroke="#666"/>
    <circle cx="400" cy="40" r="40" fill="#E0E0E0" stroke="#666"/>
    <circle cx="600" cy="40" r="40" fill="#E0E0E0" stroke="#666"/>
    <text x="200" y="100" text-anchor="middle" font-size="12">Regina Johnson - Lead Guide</text>
    <text x="400" y="100" text-anchor="middle" font-size="12">Roike Junior - Safety Director</text>
    <text x="600" y="100" text-anchor="middle" font-size="12">Blaise Anthony - Customer Experience Manager</text>
  </g>

  <!-- Contact Form -->
  <rect x="50" y="1060" width="700" height="300" fill="#E6E6FA" stroke="#666"/>
  <text x="400" y="1090" text-anchor="middle" font-size="20">Send Us a Message</text>
  <!-- Form Fields -->
  <rect x="100" y="1120" width="600" height="30" fill="#FFFFFF" stroke="#666"/>
  <text x="110" y="1115" font-size="14">Your Name:</text>
  <rect x="100" y="1170" width="600" height="30" fill="#FFFFFF" stroke="#666"/>
  <text x="110" y="1165" font-size="14">Your Email:</text>
  <!-- Radio Buttons -->
  <text x="110" y="1215" font-size="14">Message Purpose:</text>
  <circle cx="150" cy="1240" r="8" fill="#FFFFFF" stroke="#666"/>
  <circle cx="350" cy="1240" r="8" fill="#FFFFFF" stroke="#666"/>
  <circle cx="550" cy="1240" r="8" fill="#FFFFFF" stroke="#666"/>
  <text x="170" y="1245" font-size="12">General Inquiry</text>
  <text x="370" y="1245" font-size="12">Reservation Question</text>
  <text x="570" y="1245" font-size="12">Website Suggestion</text>
  <!-- Message Box -->
  <rect x="100" y="1270" width="600" height="60" fill="#FFFFFF" stroke="#666"/>
  <!-- Submit Button -->
  <rect x="100" y="1340" width="600" height="30" fill="#FFFFFF" stroke="#666"/>
  <text x="400" y="1360" text-anchor="middle" font-size="14">Submit</text>

  <!-- Footer -->
  <rect x="0" y="1400" width="800" height="60" fill="#E6E6FA"/>
  <text x="200" y="1435" text-anchor="middle" font-size="12">© 2024 Roike Adventures. All rights reserved.</text>
  <!-- Social Media Icons -->
  <g transform="translate(500, 1410)">
    <circle cx="180" cy="0" r="15" fill="#FFFFFF" stroke="#666"/>
    <circle cx="220" cy="0" r="15" fill="#FFFFFF" stroke="#666"/>
    <circle cx="260" cy="0" r="15" fill="#FFFFFF" stroke="#666"/>
  </g>
</svg>
